# xmcd
#
# Track frame offsets:
# 150
# 16004
# 31880
# 45992
# 58753
# 72900
# 87649
# 99250
# 117994
# 134906
# 149030
# 163674
# 180458
# 194282
# 209211
# 222262
# 234591
# 249275
# 262919
# 278583
#
# Disc length: 3882 seconds
#
#
# Revision: 0
# Processed by: cddbd v1.5.2PL0 Copyright (c) Steve Scherf et al.
# Submitted via: FreeRIP 2.945 
#
DISCID=280f2814
DTITLE=Don Williams - The Best of
DYEAR=1900
DGENRE=Country
TTITLE0=I recall a gypsy woman
TTITLE1=Till the river all runs dry
TTITLE2=Say it again
TTITLE3=Some broken hearts never mend
TTITLE4=I'm just a county boy
TTITLE5=Tulsa time
TTITLE6=It must be love
TTITLE7=I believe in you
TTITLE8=Love is on a roll
TTITLE9=Stay Young
TTITLE10=Amanda
TTITLE11=Thats the thing about love
TTITLE12=Shelter of your eyes
TTITLE13=Shes in love with a rodeo man
TTITLE14=Its gotta be magic
TTITLE15=Your sweet love
TTITLE16=Listen to the radio
TTITLE17=Love me over again
TTITLE18=All I'm missing is you
TTITLE19=You're my best friend
EXTD=
EXTT0=
EXTT1=
EXTT2=
EXTT3=
EXTT4=
EXTT5=
EXTT6=
EXTT7=
EXTT8=
EXTT9=
EXTT10=
EXTT11=
EXTT12=
EXTT13=
EXTT14=
EXTT15=
EXTT16=
EXTT17=
EXTT18=
EXTT19=
PLAYORDER=
